<svg id="Layer_1" data-name="Layer 1" xmlns="http://www.w3.org/2000/svg" viewBox="0 0 370.58 676.51"><defs><style>.cls-1,.cls-10,.cls-11,.cls-15,.cls-16,.cls-20,.cls-22,.cls-23,.cls-3,.cls-5,.cls-6,.cls-9{fill:none;}.cls-1,.cls-10,.cls-11,.cls-15,.cls-20,.cls-22,.cls-23,.cls-5,.cls-9{stroke:#010101;}.cls-1,.cls-10,.cls-11,.cls-16,.cls-20,.cls-22,.cls-23,.cls-3,.cls-5,.cls-6,.cls-9{stroke-linecap:round;stroke-linejoin:round;}.cls-1{stroke-width:0.48px;}.cls-14,.cls-2,.cls-21,.cls-4{font-size:12px;}.cls-2,.cls-4{fill:#010101;}.cls-2{font-family:ArialMT, Arial;}.cls-3{stroke:#304f50;}.cls-3,.cls-6{stroke-width:2px;}.cls-13,.cls-14,.cls-18,.cls-4{font-family:Helvetica, Helvetica;}.cls-6{stroke:#8a181a;}.cls-7{fill:#8a181a;}.cls-8{fill:#304f50;}.cls-9{stroke-width:0.78px;}.cls-10,.cls-16{stroke-width:1.8px;}.cls-11{stroke-width:0.9px;}.cls-12{fill:#27aae1;opacity:0.49;}.cls-13,.cls-18{font-size:11px;}.cls-13,.cls-14,.cls-21{fill:#231f20;}.cls-15{stroke-miterlimit:10;stroke-width:0.68px;}.cls-16{stroke:#be1e2d;}.cls-17,.cls-18{fill:#be1e2d;}.cls-19{letter-spacing:-0.02em;}.cls-20{stroke-width:0.83px;}.cls-21{font-family:Helvetica-Bold, Helvetica;font-weight:700;}.cls-22{stroke-width:0.78px;}.cls-23{stroke-width:0.78px;}</style></defs><title>stat_cc</title><line class="cls-1" x1="48.41" y1="24.17" x2="43.81" y2="24.17"/><text class="cls-2" transform="translate(37.37 30.57) rotate(-90)">180</text><polyline class="cls-3" points="58.22 118.21 61.04 92.62 63.86 108.57 66.68 120.57 69.5 102.58 72.32 94.8 75.14 96.74 77.96 93.63 80.78 108.05 83.6 96.71 86.42 111.25 89.24 128.8 92.06 86.55 94.88 94.07 97.7 93.88 100.52 120.39 103.34 94.16 106.16 87.02 108.98 94.08 111.8 107.19 114.62 118.87 117.44 95.65 120.26 106.36 123.08 117.62 125.9 95.54 128.72 81.85 131.54 110.41 134.36 92.82 137.18 123.89 140 91.7 142.82 110.13 145.64 95.75 148.46 112.83 151.28 123.18 154.1 89.87 156.92 120.41 159.74 90.98 162.56 120.41 165.38 114.05 168.2 112.91 171.02 106.03 173.84 101.77 176.66 123.07 179.48 125.74 182.3 87.97 185.12 103.89 187.94 109.73 190.76 88.75 193.58 107.8 196.4 89.87 199.22 98.05"/><line class="cls-1" x1="86.42" y1="199.26" x2="312.01" y2="199.26"/><line class="cls-1" x1="86.42" y1="199.26" x2="86.42" y2="203.86"/><line class="cls-1" x1="142.82" y1="199.26" x2="142.82" y2="203.86"/><line class="cls-1" x1="199.22" y1="199.26" x2="199.22" y2="203.86"/><line class="cls-1" x1="255.62" y1="199.26" x2="255.62" y2="203.86"/><line class="cls-1" x1="312.01" y1="199.26" x2="312.01" y2="203.86"/><text class="cls-4" transform="translate(77.89 215.82)">1940</text><text class="cls-4" transform="translate(134.29 215.82)">1960</text><text class="cls-4" transform="translate(190.69 215.82)">1980</text><text class="cls-4" transform="translate(247.09 215.82)">2000</text><text class="cls-4" transform="translate(303.48 215.82)">2020</text><line class="cls-1" x1="48.41" y1="189" x2="48.41" y2="24.17"/><line class="cls-1" x1="48.41" y1="189" x2="43.81" y2="189"/><line class="cls-1" x1="48.41" y1="134.06" x2="43.81" y2="134.06"/><line class="cls-1" x1="48.41" y1="79.11" x2="43.81" y2="79.11"/><text class="cls-2" transform="translate(37.37 195.4) rotate(-90)">120</text><text class="cls-2" transform="translate(37.37 140.45) rotate(-90)">140</text><text class="cls-2" transform="translate(37.37 85.51) rotate(-90)">160</text><polyline class="cls-5" points="48.41 198.82 360.1 198.82 360.1 18.82 48.41 18.82 48.41 198.82"/><text class="cls-4" transform="translate(190.69 232.23)">Year</text><text class="cls-2" transform="translate(16.97 131.77) rotate(-90)">Phenology</text><polyline class="cls-6" points="58.22 132.08 61.04 101.29 63.86 147.38 66.68 132.52 69.5 117.89 72.32 115.18 75.14 100.16 77.96 105.91 80.78 117.94 83.6 124.57 86.42 128.95 89.24 145.29 92.06 111.67 94.88 119.59 97.7 112.37 100.52 128.33 103.34 115.62 106.16 84.6 108.98 106.43 111.8 132.18 114.62 131.76 117.44 107.4 120.26 121.76 123.08 153.45 125.9 118.47 128.72 95.68 131.54 122.09 134.36 107.89 137.18 137.59 140 117.31 142.82 128.39 145.64 133.14 148.46 122.25 151.28 126.2 154.1 102.97 156.92 140.53 159.74 109.22 162.56 138.45 165.38 131.65 168.2 126.13 171.02 129.32 173.84 113 176.66 143.05 179.48 140.69 182.3 110.8 185.12 126.07 187.94 152.43 190.76 90.12 193.58 121.11 196.4 109.37 199.22 116.63"/><line class="cls-6" x1="201.22" y1="117.79" x2="288.1" y2="96.87"/><polygon class="cls-7" points="294.97 95.22 286.25 101.5 287.59 96.99 284.35 93.6 294.97 95.22"/><line class="cls-6" x1="200.47" y1="118.02" x2="290.17" y2="150.42"/><polygon class="cls-7" points="286.27 152.95 289.01 150 288.79 145.98 295.78 152.45 286.27 152.95"/><line class="cls-3" x1="200.18" y1="98.09" x2="287.06" y2="77.17"/><polygon class="cls-8" points="293.93 75.51 285.21 81.8 286.55 77.29 283.31 73.89 293.93 75.51"/><line class="cls-3" x1="199.43" y1="98.32" x2="289.13" y2="130.72"/><polygon class="cls-8" points="285.23 133.25 287.97 130.3 287.75 126.28 294.74 132.75 285.23 133.25"/><rect class="cls-9" x="0.39" y="245.15" width="369.34" height="210.68"/><polyline class="cls-10" points="50.12 411.4 50.97 411.37 51.83 411.33 52.68 411.29 53.53 411.24 54.39 411.2 55.24 411.15 56.1 411.1 56.96 411.04 57.81 410.98 58.67 410.91 59.52 410.85 60.38 410.77 61.23 410.69 62.09 410.62 62.94 410.53 63.8 410.43 64.65 410.33 65.51 410.23 66.36 410.12 67.22 409.99 68.07 409.85 68.93 409.71 69.78 409.58 70.64 409.44 71.49 409.28 72.35 409.12 73.2 408.95 74.06 408.76 74.91 408.56 75.77 408.34 76.62 408.12 77.48 407.9 78.33 407.67 79.19 407.42 80.04 407.15 80.9 406.87 81.75 406.57 82.61 406.24 83.46 405.9 84.32 405.56 85.17 405.2 86.03 404.82 86.88 404.41 87.74 403.99 88.59 403.57 89.45 403.14 90.31 402.67 91.16 402.17 92.02 401.65 92.87 401.09 93.72 400.51 94.58 399.91 95.44 399.3 96.29 398.67 97.15 398.03 98 397.36 98.86 396.65 99.71 395.92 100.57 395.15 101.42 394.34 102.28 393.5 103.13 392.64 103.99 391.77 104.84 390.87 105.7 389.92 106.55 388.93 107.41 387.93 108.26 386.93 109.12 385.88 109.97 384.79 110.83 383.67 111.68 382.54 112.54 381.35 113.39 380.11 114.25 378.83 115.1 377.55 115.96 376.26 116.81 374.91 117.67 373.47 118.52 372 119.38 370.54 120.23 369.06 121.09 367.54 121.94 365.96 122.8 364.36 123.65 362.8 124.51 361.22 125.36 359.57 126.22 357.86 127.08 356.17 127.93 354.46 128.78 352.7 129.64 350.87 130.5 349.01 131.35 347.17 132.21 345.36 133.06 343.52 133.91 341.63 134.77 339.69 135.63 337.77"/><polyline class="cls-10" points="135.63 337.77 136.48 335.91 137.34 334.04 138.19 332.1 139.05 330.1 139.9 328.09 140.76 326.11 141.61 324.15 142.47 322.26 143.32 320.35 144.18 318.35 145.03 316.33 145.89 314.36 146.74 312.47 147.6 310.6 148.45 308.69 149.31 306.76 150.16 304.9 151.02 303.1 151.87 301.34 152.73 299.6 153.58 297.87 154.44 296.17 155.29 294.47 156.15 292.81 157 291.18 157.86 289.55 158.71 287.94 159.57 286.38 160.42 284.92 161.28 283.54 162.13 282.22 162.99 280.94 163.84 279.7 164.7 278.51 165.55 277.38 166.41 276.32 167.26 275.31 168.12 274.38 168.97 273.51 169.83 272.64 170.69 271.81 171.54 271.04 172.4 270.42 173.25 269.97 174.11 269.55 174.96 269.05 175.82 268.59 176.67 268.3 177.53 268.15 178.38 268.08 179.24 268.07 180.09 268.12 180.95 268.23 181.8 268.37 182.66 268.57 183.51 268.85 184.37 269.22 185.22 269.64 186.08 270.19 186.93 270.85 187.79 271.47 188.64 272.13 189.5 272.96 190.35 273.89 191.21 274.82 192.06 275.78 192.92 276.79 193.77 277.86 194.63 279.03 195.48 280.3 196.34 281.6 197.19 282.92 198.05 284.26 198.9 285.63 199.76 287.11 200.61 288.71 201.47 290.34 202.32 291.95 203.18 293.57 204.03 295.22 204.89 296.91 205.75 298.64 206.6 300.43 207.46 302.24 208.31 304.09 209.16 305.96 210.02 307.82 210.88 309.68 211.73 311.55 212.59 313.47 213.44 315.38 214.3 317.27 215.15 319.18 216.01 321.12 216.86 323.12 217.72 325.16 218.57 327.19 219.43 329.18 220.28 331.13 221.14 333.08"/><polyline class="cls-10" points="221.14 333.08 221.99 335.02 222.85 336.94 223.7 338.86 224.56 340.73 225.41 342.57 226.27 344.38 227.12 346.21 227.98 348.07 228.83 349.93 229.69 351.75 230.54 353.53 231.4 355.28 232.25 356.99 233.11 358.68 233.96 360.38 234.82 362.04 235.67 363.64 236.53 365.22 237.38 366.79 238.24 368.32 239.09 369.81 239.95 371.28 240.8 372.71 241.66 374.1 242.51 375.46 243.37 376.81 244.22 378.12 245.08 379.41 245.94 380.65 246.79 381.86 247.65 383.05 248.5 384.22 249.35 385.34 250.21 386.42 251.06 387.46 251.92 388.45 252.78 389.41 253.63 390.39 254.49 391.35 255.34 392.26 256.2 393.12 257.05 393.95 257.91 394.77 258.76 395.55 259.62 396.31 260.47 397.01 261.33 397.69 262.18 398.36 263.04 399 263.89 399.63 264.75 400.24 265.6 400.83 266.46 401.37 267.31 401.88 268.17 402.37 269.02 402.86 269.88 403.33 270.73 403.79 271.59 404.21 272.44 404.61 273.3 404.98 274.15 405.34 275.01 405.69 275.86 406.05 276.72 406.39 277.57 406.71 278.43 406.99 279.28 407.25 280.14 407.51 280.99 407.76 281.85 408.01 282.7 408.26 283.56 408.48 284.42 408.68 285.27 408.87 286.13 409.05 286.98 409.21 287.83 409.36 288.69 409.52 289.55 409.67 290.4 409.81 291.25 409.94 292.11 410.06 292.97 410.18 293.82 410.28 294.68 410.38 295.53 410.48 296.39 410.57 297.24 410.65 298.1 410.74 298.95 410.81 299.81 410.88 300.66 410.95 301.52 411.01 302.37 411.07 303.23 411.13 304.08 411.17 304.94 411.21 305.79 411.26 306.65 411.3"/><line class="cls-11" x1="47.51" y1="252.65" x2="47.51" y2="412.23"/><line class="cls-11" x1="306.65" y1="412.23" x2="47.51" y2="412.23"/><rect class="cls-12" x="135.63" y="262.67" width="88.69" height="26.42"/><rect class="cls-12" x="103.13" y="382.55" width="148.39" height="23.79"/><text class="cls-13" transform="translate(227.02 268.14)">Often assumed <tspan x="0" y="13.2">pre-climate change </tspan><tspan x="0" y="26.4">baseline</tspan></text><text class="cls-2" transform="translate(35.06 346.19) rotate(-90)">Fitness</text><text class="cls-14" transform="translate(159.52 447.33)">Mismatch</text><text class="cls-14" transform="translate(177.08 432.03)">0</text><line class="cls-15" x1="179.71" y1="420.75" x2="179.71" y2="412.2"/><line class="cls-16" x1="210.65" y1="293.88" x2="226.6" y2="324.3"/><polygon class="cls-17" points="222.47 323.61 226.08 323.32 228.38 320.51 229.09 329.06 222.47 323.61"/><line class="cls-16" x1="147.24" y1="294.54" x2="132.54" y2="326.02"/><polygon class="cls-17" points="130.59 322.32 133.01 325.01 136.63 325.14 130.26 330.89 130.59 322.32"/><line class="cls-16" x1="108.36" y1="401.43" x2="88.52" y2="406.4"/><polygon class="cls-17" points="90.17 402.56 89.6 406.13 91.79 409.02 83.31 407.71 90.17 402.56"/><line class="cls-16" x1="244.28" y1="400.99" x2="264.11" y2="405.96"/><polygon class="cls-17" points="260.85 408.58 263.03 405.69 262.47 402.11 269.32 407.26 260.85 408.58"/><text class="cls-18" transform="translate(231.4 324.93)">E<tspan class="cls-19" x="7.34" y="0">f</tspan><tspan x="10.2" y="0">fect of </tspan><tspan x="0" y="13.2">climate change</tspan></text><text class="cls-13" transform="translate(282.26 384.82)">Asynchrony <tspan x="0" y="13.2">baseline</tspan></text><polyline class="cls-10" points="50.12 634.69 50.97 634.65 51.83 634.62 52.68 634.58 53.53 634.53 54.39 634.49 55.24 634.44 56.1 634.39 56.96 634.33 57.81 634.26 58.67 634.2 59.52 634.13 60.38 634.06 61.23 633.99 62.09 633.91 62.94 633.82 63.8 633.72 64.65 633.62 65.51 633.52 66.36 633.4 67.22 633.28 68.07 633.14 68.93 633 69.78 632.87 70.64 632.73 71.49 632.57 72.35 632.41 73.2 632.24 74.06 632.05 74.91 631.85 75.77 631.63 76.62 631.41 77.48 631.19 78.33 630.96 79.19 630.71 80.04 630.44 80.9 630.16 81.75 629.86 82.61 629.53 83.46 629.19 84.32 628.85 85.17 628.49 86.03 628.11 86.88 627.7 87.74 627.28 88.59 626.86 89.45 626.43 90.31 625.96 91.16 625.46 92.02 624.94 92.87 624.38 93.72 623.79 94.58 623.2 95.44 622.59 96.29 621.96 97.15 621.32 98 620.65 98.86 619.94 99.71 619.21 100.57 618.45 101.42 617.63 102.28 616.79 103.13 615.93 103.99 615.06 104.84 614.16 105.7 613.21 106.55 612.22 107.41 611.22 108.26 610.22 109.12 609.17 109.97 608.08 110.83 606.96 111.68 605.83 112.54 604.64 113.39 603.4 114.25 602.12 115.1 600.84 115.96 599.55 116.81 598.2 117.67 596.76 118.52 595.29 119.38 593.83 120.23 592.35 121.09 590.83 121.94 589.25 122.8 587.65 123.65 586.09 124.51 584.51 125.36 582.86 126.22 581.15 127.08 579.46 127.93 577.75 128.78 575.99 129.64 574.16 130.5 572.3 131.35 570.46 132.21 568.65 133.06 566.81 133.91 564.92 134.77 562.98 135.63 561.06"/><polyline class="cls-10" points="135.63 561.06 136.48 559.2 137.34 557.33 138.19 555.39 139.05 553.39 139.9 551.38 140.76 549.4 141.61 547.44 142.47 545.55 143.32 543.64 144.18 541.64 145.03 539.62 145.89 537.65 146.74 535.76 147.6 533.88 148.45 531.98 149.31 530.05 150.16 528.19 151.02 526.39 151.87 524.63 152.73 522.88 153.58 521.16 154.44 519.46 155.29 517.76 156.15 516.1 157 514.47 157.86 512.84 158.71 511.23 159.57 509.67 160.42 508.21 161.28 506.83 162.13 505.51 162.99 504.24 163.84 502.99 164.7 501.8 165.55 500.67 166.41 499.61 167.26 498.6 168.12 497.67 168.97 496.8 169.83 495.93 170.69 495.1 171.54 494.33 172.4 493.71 173.25 493.26 174.11 492.84 174.96 492.34 175.82 491.88 176.67 491.59 177.53 491.44 178.38 491.37 179.24 491.36 180.09 491.41 180.95 491.51 181.8 491.66 182.66 491.86 183.51 492.14 184.37 492.51 185.22 492.93 186.08 493.48 186.93 494.14 187.79 494.76 188.64 495.42 189.5 496.25 190.35 497.18 191.21 498.11 192.06 499.07 192.92 500.08 193.77 501.15 194.63 502.32 195.48 503.59 196.34 504.88 197.19 506.21 198.05 507.56 198.9 508.92 199.76 510.4 200.61 512 201.47 513.63 202.32 515.24 203.18 516.86 204.03 518.51 204.89 520.2 205.75 521.93 206.6 523.72 207.46 525.53 208.31 527.38 209.16 529.25 210.02 531.11 210.88 532.97 211.73 534.84 212.59 536.76 213.44 538.67 214.3 540.56 215.15 542.47 216.01 544.41 216.86 546.41 217.72 548.45 218.57 550.47 219.43 552.47 220.28 554.42 221.14 556.37"/><polyline class="cls-10" points="221.14 556.37 221.99 558.31 222.85 560.23 223.7 562.15 224.56 564.02 225.41 565.86 226.27 567.67 227.12 569.5 227.98 571.36 228.83 573.22 229.69 575.04 230.54 576.82 231.4 578.57 232.25 580.28 233.11 581.97 233.96 583.67 234.82 585.33 235.67 586.93 236.53 588.51 237.38 590.08 238.24 591.61 239.09 593.1 239.95 594.57 240.8 596 241.66 597.39 242.51 598.75 243.37 600.1 244.22 601.41 245.08 602.7 245.94 603.94 246.79 605.15 247.65 606.34 248.5 607.51 249.35 608.63 250.21 609.71 251.06 610.75 251.92 611.74 252.78 612.7 253.63 613.68 254.49 614.64 255.34 615.55 256.2 616.41 257.05 617.24 257.91 618.06 258.76 618.84 259.62 619.6 260.47 620.3 261.33 620.98 262.18 621.64 263.04 622.29 263.89 622.92 264.75 623.53 265.6 624.12 266.46 624.66 267.31 625.17 268.17 625.66 269.02 626.15 269.88 626.62 270.73 627.08 271.59 627.5 272.44 627.9 273.3 628.27 274.15 628.63 275.01 628.98 275.86 629.34 276.72 629.68 277.57 630 278.43 630.28 279.28 630.54 280.14 630.8 280.99 631.05 281.85 631.3 282.7 631.55 283.56 631.77 284.42 631.97 285.27 632.16 286.13 632.34 286.98 632.5 287.83 632.65 288.69 632.8 289.55 632.96 290.4 633.1 291.25 633.23 292.11 633.35 292.97 633.47 293.82 633.57 294.68 633.67 295.53 633.77 296.39 633.86 297.24 633.94 298.1 634.02 298.95 634.1 299.81 634.17 300.66 634.24 301.52 634.3 302.37 634.36 303.23 634.41 304.08 634.46 304.94 634.5 305.79 634.55 306.65 634.59"/><line class="cls-11" x1="47.51" y1="475.94" x2="47.51" y2="635.52"/><line class="cls-11" x1="306.65" y1="635.52" x2="47.51" y2="635.52"/><rect class="cls-12" x="192.31" y="521.56" width="46.27" height="54.22"/><rect class="cls-12" x="229.02" y="612.7" width="51.5" height="21.35"/><text class="cls-2" transform="translate(35.06 569.48) rotate(-90)">Fitness</text><text class="cls-14" transform="translate(159.52 670.62)">Mismatch</text><text class="cls-14" transform="translate(177.08 655.32)">0</text><line class="cls-15" x1="179.71" y1="644.04" x2="179.71" y2="635.49"/><line class="cls-16" x1="239.67" y1="581.01" x2="246.39" y2="593.85"/><polygon class="cls-17" points="242.26 593.16 245.88 592.86 248.17 590.06 248.88 598.61 242.26 593.16"/><line class="cls-16" x1="210.14" y1="516.99" x2="195.85" y2="492.82"/><polygon class="cls-17" points="200.01 493.3 196.42 493.77 194.27 496.69 193.12 488.19 200.01 493.3"/><line class="cls-16" x1="283.56" y1="631.77" x2="300" y2="632.02"/><polygon class="cls-17" points="297.42 635.32 298.88 632.01 297.52 628.65 305.37 632.11 297.42 635.32"/><text class="cls-18" transform="translate(211.12 496.98)">E<tspan class="cls-19" x="7.34" y="0">f</tspan><tspan x="10.2" y="0">fect of </tspan><tspan x="0" y="13.2">climate change</tspan></text><line class="cls-16" x1="225.06" y1="612.13" x2="208.59" y2="606.39"/><polygon class="cls-17" points="212.07 604.08 209.63 606.76 209.88 610.37 203.51 604.63 212.07 604.08"/><text class="cls-13" transform="translate(241.59 528.34)">Alternative<tspan x="0" y="13.2">pre-climate change</tspan><tspan x="0" y="26.4">baseline</tspan></text><text class="cls-13" transform="translate(287.68 597.87)">Alternative<tspan x="-4.28" y="13.2">asynchrony</tspan><tspan x="11" y="26.4">baseline</tspan></text><rect class="cls-20" x="0.76" y="0.42" width="369.34" height="236.3"/><rect class="cls-9" x="0.85" y="465.44" width="369.34" height="210.68"/><text class="cls-21" transform="translate(4.3 15.82)">(a)</text><text class="cls-21" transform="translate(3.65 256.75)">(b)</text><text class="cls-21" transform="translate(4.3 476.94)">(c)</text><polyline class="cls-22" points="50.12 411.4 50.97 411.39 51.83 411.38 52.68 411.38 53.53 411.37 54.39 411.36 55.24 411.35 56.1 411.34 56.96 411.33 57.81 411.32 58.67 411.31 59.52 411.3 60.38 411.28 61.23 411.27 62.09 411.25 62.94 411.24 63.8 411.22 64.65 411.2 65.51 411.18 66.36 411.16 67.22 411.14 68.07 411.11 68.93 411.08 69.78 411.06 70.64 411.03 71.49 411.01 72.35 410.98 73.2 410.94 74.06 410.91 74.91 410.87 75.77 410.83 76.62 410.79 77.48 410.75 78.33 410.71 79.19 410.66 80.04 410.61 80.9 410.56 81.75 410.5 82.61 410.44 83.46 410.38 84.32 410.31 85.17 410.25 86.03 410.18 86.88 410.1 87.74 410.02 88.59 409.95 89.45 409.87 90.31 409.78 91.16 409.69 92.02 409.59 92.87 409.49 93.72 409.38 94.58 409.27 95.44 409.15 96.29 409.04 97.15 408.92 98 408.79 98.86 408.66 99.71 408.53 100.57 408.39 101.42 408.24 102.28 408.08 103.13 407.92 103.99 407.76 104.84 407.59 105.7 407.42 106.55 407.23 107.41 407.05 108.26 406.86 109.12 406.67 109.97 406.46 110.83 406.26 111.68 406.05 112.54 405.82 113.39 405.6 114.25 405.36 115.1 405.12 115.96 404.88 116.81 404.63 117.67 404.36 118.52 404.09 119.38 403.82 120.23 403.55 121.09 403.26 121.94 402.97 122.8 402.68 123.65 402.38 124.51 402.09 125.36 401.79 126.22 401.47 127.08 401.15 127.93 400.84 128.78 400.51 129.64 400.17 130.5 399.83 131.35 399.49 132.21 399.15 133.06 398.81 133.91 398.46 134.77 398.1 135.63 397.74"/><polyline class="cls-22" points="135.63 397.74 136.48 397.4 137.34 397.05 138.19 396.69 139.05 396.32 139.9 395.95 140.76 395.58 141.61 395.22 142.47 394.87 143.32 394.51 144.18 394.14 145.03 393.77 145.89 393.4 146.74 393.05 147.6 392.7 148.45 392.35 149.31 391.99 150.16 391.65 151.02 391.31 151.87 390.99 152.73 390.66 153.58 390.34 154.44 390.03 155.29 389.71 156.15 389.4 157 389.1 157.86 388.8 158.71 388.5 159.57 388.21 160.42 387.94 161.28 387.69 162.13 387.44 162.99 387.2 163.84 386.97 164.7 386.75 165.55 386.54 166.41 386.35 167.26 386.16 168.12 385.99 168.97 385.82 169.83 385.66 170.69 385.51 171.54 385.37 172.4 385.25 173.25 385.17 174.11 385.09 174.96 385 175.82 384.91 176.67 384.86 177.53 384.83 178.38 384.82 179.24 384.82 180.09 384.82 180.95 384.85 181.8 384.87 182.66 384.91 183.51 384.96 184.37 385.03 185.22 385.11 186.08 385.21 186.93 385.33 187.79 385.45 188.64 385.57 189.5 385.72 190.35 385.89 191.21 386.07 192.06 386.25 192.92 386.43 193.77 386.63 194.63 386.85 195.48 387.08 196.34 387.32 197.19 387.57 198.05 387.82 198.9 388.07 199.76 388.35 200.61 388.64 201.47 388.95 202.32 389.25 203.18 389.55 204.03 389.85 204.89 390.17 205.75 390.49 206.6 390.82 207.46 391.15 208.31 391.5 209.16 391.84 210.02 392.19 210.88 392.53 211.73 392.88 212.59 393.24 213.44 393.59 214.3 393.94 215.15 394.3 216.01 394.65 216.86 395.03 217.72 395.4 218.57 395.78 219.43 396.15 220.28 396.51 221.14 396.87"/><polyline class="cls-22" points="221.14 396.87 221.99 397.23 222.85 397.59 223.7 397.94 224.56 398.29 225.41 398.63 226.27 398.97 227.12 399.31 227.98 399.65 228.83 400 229.69 400.33 230.54 400.67 231.4 400.99 232.25 401.31 233.11 401.62 233.96 401.94 234.82 402.24 235.67 402.54 236.53 402.83 237.38 403.13 238.24 403.41 239.09 403.68 239.95 403.96 240.8 404.22 241.66 404.48 242.51 404.73 243.37 404.98 244.22 405.23 245.08 405.46 245.94 405.7 246.79 405.92 247.65 406.14 248.5 406.36 249.35 406.57 250.21 406.77 251.06 406.96 251.92 407.14 252.78 407.32 253.63 407.5 254.49 407.68 255.34 407.85 256.2 408.01 257.05 408.16 257.91 408.31 258.76 408.46 259.62 408.6 260.47 408.73 261.33 408.86 262.18 408.98 263.04 409.1 263.89 409.21 264.75 409.33 265.6 409.44 266.46 409.54 267.31 409.63 268.17 409.72 269.02 409.81 269.88 409.9 270.73 409.99 271.59 410.07 272.44 410.14 273.3 410.21 274.15 410.27 275.01 410.34 275.86 410.41 276.72 410.47 277.57 410.53 278.43 410.58 279.28 410.63 280.14 410.68 280.99 410.72 281.85 410.77 282.7 410.81 283.56 410.86 284.42 410.89 285.27 410.93 286.13 410.96 286.98 410.99 287.83 411.02 288.69 411.05 289.55 411.08 290.4 411.1 291.25 411.13 292.11 411.15 292.97 411.17 293.82 411.19 294.68 411.21 295.53 411.23 296.39 411.24 297.24 411.26 298.1 411.27 298.95 411.29 299.81 411.3 300.66 411.31 301.52 411.33 302.37 411.34 303.23 411.35 304.08 411.36 304.94 411.36 305.79 411.37 306.65 411.38"/><polyline class="cls-23" points="56.79 634.13 57.65 634.13 58.5 634.12 59.36 634.11 60.21 634.1 61.07 634.1 61.92 634.09 62.78 634.08 63.63 634.06 64.49 634.05 65.34 634.04 66.2 634.03 67.06 634.01 67.91 634 68.77 633.99 69.62 633.97 70.48 633.95 71.33 633.93 72.19 633.91 73.04 633.89 73.9 633.87 74.75 633.85 75.61 633.82 76.46 633.79 77.32 633.77 78.17 633.74 79.03 633.71 79.88 633.68 80.74 633.64 81.59 633.61 82.45 633.56 83.3 633.52 84.16 633.48 85.01 633.44 85.87 633.39 86.72 633.34 87.58 633.29 88.43 633.24 89.29 633.18 90.14 633.11 91 633.05 91.85 632.98 92.71 632.91 93.56 632.84 94.42 632.76 95.27 632.68 96.13 632.6 96.98 632.51 97.84 632.42 98.69 632.32 99.55 632.22 100.4 632.11 101.26 632 102.11 631.89 102.97 631.77 103.83 631.65 104.68 631.53 105.53 631.4 106.39 631.26 107.25 631.12 108.1 630.97 108.95 630.81 109.81 630.65 110.67 630.49 111.52 630.33 112.38 630.15 113.23 629.97 114.09 629.78 114.94 629.59 115.8 629.4 116.65 629.2 117.51 628.99 118.36 628.78 119.22 628.56 120.07 628.33 120.93 628.09 121.78 627.85 122.64 627.62 123.49 627.37 124.35 627.1 125.2 626.83 126.06 626.55 126.91 626.28 127.77 626 128.62 625.71 129.48 625.41 130.33 625.12 131.19 624.83 132.04 624.52 132.9 624.2 133.75 623.89 134.61 623.57 135.46 623.25 136.32 622.91 137.17 622.56 138.03 622.22 138.88 621.88 139.74 621.54 140.59 621.19 141.45 620.83 142.31 620.48"/><polyline class="cls-23" points="142.31 620.48 143.16 620.13 144.01 619.78 144.87 619.42 145.72 619.05 146.58 618.68 147.44 618.31 148.29 617.95 149.15 617.6 150 617.25 150.86 616.88 151.71 616.5 152.57 616.13 153.42 615.78 154.28 615.44 155.13 615.08 155.99 614.73 156.84 614.38 157.7 614.05 158.55 613.72 159.41 613.4 160.26 613.08 161.12 612.76 161.97 612.45 162.83 612.14 163.68 611.84 164.54 611.53 165.39 611.23 166.25 610.95 167.1 610.67 167.96 610.42 168.81 610.17 169.67 609.94 170.52 609.71 171.38 609.49 172.23 609.28 173.09 609.08 173.94 608.89 174.8 608.72 175.65 608.56 176.51 608.4 177.36 608.24 178.22 608.1 179.07 607.99 179.93 607.9 180.78 607.82 181.64 607.73 182.5 607.64 183.35 607.59 184.21 607.57 185.06 607.55 185.91 607.55 186.77 607.56 187.63 607.58 188.48 607.61 189.34 607.64 190.19 607.69 191.05 607.76 191.9 607.84 192.76 607.94 193.61 608.07 194.47 608.18 195.32 608.3 196.18 608.46 197.03 608.63 197.89 608.8 198.74 608.98 199.6 609.17 200.45 609.37 201.31 609.58 202.16 609.82 203.02 610.06 203.87 610.3 204.73 610.55 205.58 610.81 206.44 611.08 207.29 611.38 208.15 611.68 209 611.98 209.86 612.28 210.71 612.59 211.57 612.9 212.42 613.22 213.28 613.55 214.13 613.89 214.99 614.23 215.84 614.58 216.7 614.92 217.55 615.27 218.41 615.61 219.26 615.97 220.12 616.32 220.97 616.67 221.83 617.03 222.69 617.39 223.54 617.76 224.4 618.14 225.25 618.51 226.1 618.88 226.96 619.25 227.82 619.61"/><polyline class="cls-23" points="227.82 619.61 228.67 619.97 229.53 620.32 230.38 620.68 231.24 621.03 232.09 621.37 232.95 621.7 233.8 622.04 234.66 622.39 235.51 622.73 236.37 623.07 237.22 623.4 238.08 623.72 238.93 624.04 239.79 624.36 240.64 624.67 241.5 624.98 242.35 625.27 243.21 625.57 244.06 625.86 244.92 626.14 245.77 626.42 246.63 626.69 247.48 626.96 248.34 627.21 249.19 627.47 250.05 627.72 250.9 627.96 251.76 628.2 252.61 628.43 253.47 628.65 254.32 628.87 255.18 629.09 256.03 629.3 256.89 629.5 257.74 629.69 258.6 629.88 259.45 630.05 260.31 630.24 261.17 630.41 262.02 630.58 262.88 630.74 263.73 630.9 264.58 631.05 265.44 631.19 266.3 631.33 267.15 631.46 268.01 631.59 268.86 631.71 269.72 631.83 270.57 631.95 271.43 632.06 272.28 632.17 273.14 632.27 273.99 632.37 274.85 632.46 275.7 632.55 276.56 632.64 277.41 632.72 278.27 632.8 279.12 632.87 279.98 632.94 280.83 633.01 281.69 633.07 282.54 633.14 283.4 633.2 284.25 633.26 285.11 633.31 285.96 633.36 286.82 633.41 287.67 633.46 288.53 633.5 289.38 633.55 290.24 633.59 291.09 633.63 291.95 633.66 292.8 633.7 293.66 633.73 294.51 633.75 295.37 633.78 296.22 633.81 297.08 633.84 297.93 633.86 298.79 633.88 299.64 633.9 300.5 633.92 301.36 633.94 302.21 633.96 303.06 633.98 303.92 633.99 304.77 634.01 305.63 634.02 306.49 634.04 307.34 634.05 308.2 634.06 309.05 634.07 309.91 634.08 310.76 634.09 311.62 634.1 312.47 634.11 313.33 634.11"/></svg>